<svg xmlns="http://www.w3.org/2000/svg" width="920" height="470" viewBox="0 0 920 470" font-family="Inter, Segoe UI, Helvetica, Arial, sans-serif">
  <rect width="920" height="470" fill="#0b1220"/>
  <text x="40" y="48" fill="#e2e8f0" font-size="20" font-weight="700">WalletMark — penanda dompet (tile tint halus)</text>
  <text x="40" y="72" fill="#94a3b8" font-size="13">Glyph warna tipe di atas latar tint ±14%. Ukuran 42 px di daftar, 36 px kartu ringkas, 34 px di hero.</text>

  <!-- ============ tipe dasar ============ -->
  <text x="40" y="112" fill="#64748b" font-size="12" font-weight="600">TANPA PROVIDER</text>

  <g transform="translate(40,128)">
    <rect width="76" height="76" rx="24" fill="#0f9d7624"/>
    <g transform="translate(14,14)" fill="none" stroke="#0f9d76" stroke-width="1.9" stroke-linecap="round" stroke-linejoin="round">
      <rect x="0.5" y="4.5" width="23" height="15" rx="2.8"/><circle cx="12" cy="12" r="3"/>
      <path d="M4.6 9.3v5.4"/><path d="M19.4 9.3v5.4"/>
    </g>
    <text x="38" y="100" fill="#e2e8f0" font-size="14" font-weight="600" text-anchor="middle">Cash</text>
  </g>

  <g transform="translate(140,128)">
    <rect width="76" height="76" rx="24" fill="#2563eb24"/>
    <g transform="translate(14,14)" fill="none" stroke="#2563eb" stroke-width="1.9" stroke-linecap="round" stroke-linejoin="round">
      <path d="M1.8 9 12 3.4 22.2 9"/><path d="M3.8 11.5h16.4"/>
      <path d="M7 13.6v5"/><path d="M12 13.6v5"/><path d="M17 13.6v5"/><path d="M4.2 21h15.6"/>
    </g>
    <text x="38" y="100" fill="#e2e8f0" font-size="14" font-weight="600" text-anchor="middle">Bank</text>
  </g>

  <g transform="translate(240,128)">
    <rect width="76" height="76" rx="24" fill="#7c3aed24"/>
    <g transform="translate(14,14)" fill="none" stroke="#7c3aed" stroke-width="1.9" stroke-linecap="round" stroke-linejoin="round">
      <rect x="1.6" y="7.6" width="20.8" height="13.4" rx="3.4"/><path d="M6 14.3h3.8"/><circle cx="17.2" cy="14.3" r="1.5"/>
      <path d="M15.8 2.4a6.6 6.6 0 0 1 6.6 6.6"/><path d="M16.6 5.9a3.2 3.2 0 0 1 3.2 3.2"/>
    </g>
    <text x="38" y="100" fill="#e2e8f0" font-size="14" font-weight="600" text-anchor="middle">E-Wallet</text>
  </g>

  <!-- ============ monogram provider ============ -->
  <text x="380" y="112" fill="#64748b" font-size="12" font-weight="600">DENGAN PROVIDER (MONOGRAM WARNA BRAND)</text>

  <g transform="translate(380,128)">
    <rect width="76" height="76" rx="24" fill="#2b6cb024"/>
    <text x="38" y="47" fill="#2b6cb0" font-size="24" font-weight="700" text-anchor="middle">BCA</text>
    <text x="38" y="100" fill="#e2e8f0" font-size="13" text-anchor="middle">BCA</text>
  </g>
  <g transform="translate(470,128)">
    <rect width="76" height="76" rx="24" fill="#2f6fb524"/>
    <text x="38" y="47" fill="#2f6fb5" font-size="24" font-weight="700" text-anchor="middle">MDR</text>
    <text x="38" y="100" fill="#e2e8f0" font-size="13" text-anchor="middle">Mandiri</text>
  </g>
  <g transform="translate(560,128)">
    <rect width="76" height="76" rx="24" fill="#ea580c24"/>
    <text x="38" y="47" fill="#ea580c" font-size="24" font-weight="700" text-anchor="middle">BNI</text>
    <text x="38" y="100" fill="#e2e8f0" font-size="13" text-anchor="middle">BNI</text>
  </g>
  <g transform="translate(650,128)">
    <rect width="76" height="76" rx="24" fill="#0ea5e924"/>
    <text x="38" y="47" fill="#0284c7" font-size="19" font-weight="700" text-anchor="middle">GoPay</text>
    <text x="38" y="100" fill="#e2e8f0" font-size="13" text-anchor="middle">GoPay</text>
  </g>
  <g transform="translate(740,128)">
    <rect width="76" height="76" rx="24" fill="#6d28d924"/>
    <text x="38" y="47" fill="#6d28d9" font-size="24" font-weight="700" text-anchor="middle">OVO</text>
    <text x="38" y="100" fill="#e2e8f0" font-size="13" text-anchor="middle">OVO</text>
  </g>
  <g transform="translate(830,128)">
    <rect width="76" height="76" rx="24" fill="#ea580c24"/>
    <text x="38" y="47" fill="#ea580c" font-size="21" font-weight="700" text-anchor="middle">SPay</text>
    <text x="38" y="100" fill="#e2e8f0" font-size="13" text-anchor="middle">ShopeePay</text>
  </g>

  <!-- ============ ukuran + contoh kartu ============ -->
  <text x="40" y="272" fill="#64748b" font-size="12" font-weight="600">UKURAN &amp; CONTOH ISI KARTU DOMPET</text>

  <g transform="translate(40,288)">
    <rect width="42" height="42" rx="13.4" fill="#2563eb24"/>
    <g transform="translate(8,8)" fill="none" stroke="#2563eb" stroke-width="1.9" stroke-linecap="round" stroke-linejoin="round">
      <path d="M1.8 9 12 3.4 22.2 9"/><path d="M3.8 11.5h16.4"/>
      <path d="M7 13.6v5"/><path d="M12 13.6v5"/><path d="M17 13.6v5"/><path d="M4.2 21h15.6"/>
    </g>
  </g>
  <g transform="translate(96,292)">
    <rect width="36" height="36" rx="11.5" fill="#0f9d7624"/>
    <g transform="translate(7,7)" fill="none" stroke="#0f9d76" stroke-width="1.9" stroke-linecap="round" stroke-linejoin="round">
      <rect x="0.5" y="4.5" width="23" height="15" rx="2.8"/><circle cx="12" cy="12" r="3"/>
      <path d="M4.6 9.3v5.4"/><path d="M19.4 9.3v5.4"/>
    </g>
  </g>
  <g transform="translate(146,288)">
    <rect width="42" height="42" rx="13.4" fill="#2b6cb024"/>
    <text x="21" y="27" fill="#2b6cb0" font-size="14" font-weight="700" text-anchor="middle">BCA</text>
  </g>
  <g transform="translate(202,288)">
    <rect width="42" height="42" rx="13.4" fill="#ffffff14"/>
    <text x="21" y="27" fill="#ffffff" font-size="16" font-weight="700" text-anchor="middle">BCA</text>
  </g>
  <text x="258" y="315" fill="#7c8aa0" font-size="12">← versi solid untuk kartu hero gelap</text>

  <!-- kartu 1: bank + provider -->
  <rect x="40" y="352" width="400" height="84" rx="18" fill="#131c2e"/>
  <g transform="translate(58,372)">
    <rect width="44" height="44" rx="14" fill="#2b6cb024"/>
    <text x="22" y="29" fill="#2b6cb0" font-size="15" font-weight="700" text-anchor="middle">BCA</text>
  </g>
  <text x="118" y="388" fill="#e2e8f0" font-size="15" font-weight="600">Tabungan BCA</text>
  <rect x="118" y="398" width="58" height="20" rx="10" fill="#2563eb1f"/>
  <text x="128" y="412" fill="#2563eb" font-size="11" font-weight="600">Bank · BCA</text>
  <text x="422" y="404" fill="#e2e8f0" font-size="16" font-weight="600" text-anchor="end">Rp 12.450.000</text>

  <!-- kartu 2: e-wallet + provider -->
  <rect x="460" y="352" width="420" height="84" rx="18" fill="#131c2e"/>
  <g transform="translate(478,372)">
    <rect width="44" height="44" rx="14" fill="#6d28d924"/>
    <text x="22" y="29" fill="#6d28d9" font-size="15" font-weight="700" text-anchor="middle">OVO</text>
  </g>
  <text x="538" y="388" fill="#e2e8f0" font-size="15" font-weight="600">OVO Utama</text>
  <rect x="538" y="398" width="78" height="20" rx="10" fill="#7c3aed1f"/>
  <text x="548" y="412" fill="#7c3aed" font-size="11" font-weight="600">E-Wallet · OVO</text>
  <text x="862" y="404" fill="#e2e8f0" font-size="16" font-weight="600" text-anchor="end">Rp 320.000</text>
</svg>
